<?xml version="1.0" encoding="UTF-8" standalone="no"?>
<!-- Created with Inkscape (http://www.inkscape.org/) -->

<svg
   xmlns:dc="http://purl.org/dc/elements/1.1/"
   xmlns:cc="http://creativecommons.org/ns#"
   xmlns:rdf="http://www.w3.org/1999/02/22-rdf-syntax-ns#"
   xmlns:svg="http://www.w3.org/2000/svg"
   xmlns="http://www.w3.org/2000/svg"
   xmlns:xlink="http://www.w3.org/1999/xlink"
   version="1.0"
   width="128"
   height="128"
   id="svg2">
  <defs
     id="defs4">
    <linearGradient
       id="linearGradient4126">
      <stop
         id="stop4128"
         style="stop-color:#555555;stop-opacity:1"
         offset="0" />
      <stop
         id="stop4130"
         style="stop-color:#000000;stop-opacity:1"
         offset="1" />
    </linearGradient>
    <linearGradient
       x1="58.929012"
       y1="58.6684"
       x2="58.929012"
       y2="5.3364"
       id="linearGradient3905"
       xlink:href="#linearGradient4126"
       gradientUnits="userSpaceOnUse" />
    <radialGradient
       cx="21.761711"
       cy="23.07144"
       r="15.571428"
       fx="21.761711"
       fy="23.07144"
       id="radialGradient3564"
       xlink:href="#linearGradient3558"
       gradientUnits="userSpaceOnUse"
       gradientTransform="matrix(0.977282,3.554943e-8,0,0.651376,-0.79443,15.82896)" />
    <linearGradient
       id="linearGradient3558">
      <stop
         id="stop3560"
         style="stop-color:#000000;stop-opacity:1"
         offset="0" />
      <stop
         id="stop3562"
         style="stop-color:#000000;stop-opacity:0"
         offset="1" />
    </linearGradient>
    <linearGradient
       id="linearGradient5783">
      <stop
         id="stop5785"
         style="stop-color:#d3d7cf;stop-opacity:1"
         offset="0" />
      <stop
         id="stop5791"
         style="stop-color:#f5f5f5;stop-opacity:1"
         offset="0.5" />
      <stop
         id="stop5787"
         style="stop-color:#bebebe;stop-opacity:1"
         offset="1" />
    </linearGradient>
    <linearGradient
       x1="23.505953"
       y1="5.7753429"
       x2="20.604948"
       y2="29.85923"
       id="linearGradient31287"
       xlink:href="#linearGradient5783"
       gradientUnits="userSpaceOnUse" />
  </defs>
  <metadata
     id="metadata7">
    <rdf:RDF>
      <cc:Work
         rdf:about="">
        <dc:format>image/svg+xml</dc:format>
        <dc:type
           rdf:resource="http://purl.org/dc/dcmitype/StillImage" />
        <dc:title></dc:title>
      </cc:Work>
    </rdf:RDF>
  </metadata>
  <g
     transform="matrix(1.3236014,0,0,1.295062,-16.444472,-9.5733432)"
     id="g3913"
     style="font-size:43.94123459px;font-style:normal;font-variant:normal;font-weight:normal;font-stretch:normal;line-height:125%;letter-spacing:0px;word-spacing:0px;opacity:0.19232046;fill:url(#linearGradient3905);fill-opacity:1;stroke:none;font-family:Nokia Pure Headline;-inkscape-font-specification:Nokia Pure Headline" />
  <g
     transform="matrix(3.6457209,0,0,3.3658164,-25.409869,-18.966144)"
     id="g3902">
    <path
       d="M 21.326337,9.3278633 10.449186,27.94227 c -1.9224999,3.29138 -0.7716107,7.538902 2.558905,9.43994 l 2.094306,1.196865 c 3.33168,1.901036 7.629857,0.762663 9.553522,-2.528715 L 36.41168,15.928621 c 1.923666,-3.292504 1.213364,-7.2880556 -1.576324,-8.8808766 -2.789921,-1.5928211 -6.64751,-0.2024772 -8.57001,3.0900276 l -8.155765,13.961932 c -1.923432,3.291377 -2.130672,6.771738 -0.462034,7.736879 1.669804,0.962892 4.609851,-0.942645 6.532351,-4.234025 l 3.96249,-6.782988"
       transform="translate(0.494048,1.056164)"
       id="path7057"
       style="fill:none;stroke:#888a85;stroke-width:3.00000024;stroke-linecap:round;stroke-linejoin:round;stroke-miterlimit:4;stroke-dasharray:none" />
    <path
       d="M 21.326337,9.2155349 10.449186,27.829941 c -1.9224999,3.29138 -0.7716107,7.538902 2.558905,9.43994 l 2.094306,1.196865 c 3.33168,1.901036 7.629857,0.762663 9.553522,-2.528715 L 36.41168,15.816292 c 1.923666,-3.292504 1.213364,-7.288055 -1.576324,-8.880876 -2.789921,-1.5928211 -6.64751,-0.2024772 -8.57001,3.090028 l -8.155765,13.961931 c -1.923432,3.291377 -2.130672,6.771738 -0.462034,7.736879 1.669804,0.962892 4.609851,-0.942645 6.532351,-4.234025 l 3.96249,-6.782988"
       transform="translate(0.494048,1.168493)"
       id="path7053"
       style="fill:none;stroke:url(#linearGradient31287);stroke-width:1;stroke-linecap:round;stroke-linejoin:round;stroke-miterlimit:4;stroke-dasharray:none" />
  </g>
  <path
     d="m 38.142857,30.857143 a 15.571428,10.142858 0 1 1 -31.142857,0 15.571428,10.142858 0 1 1 31.142857,0 z"
     transform="matrix(4.7996427,0,0,0.82960307,-33.487332,95.11605)"
     id="path3556"
     style="opacity:0.25;color:#000000;fill:url(#radialGradient3564);fill-opacity:1;fill-rule:nonzero;stroke:none;stroke-width:1;marker:none;visibility:visible;display:inline;overflow:visible" />
</svg>
