<?xml version="1.0" encoding="UTF-8" standalone="no"?>
<!-- Created with Inkscape (http://www.inkscape.org/) -->

<svg
   xmlns:dc="http://purl.org/dc/elements/1.1/"
   xmlns:cc="http://creativecommons.org/ns#"
   xmlns:rdf="http://www.w3.org/1999/02/22-rdf-syntax-ns#"
   xmlns:svg="http://www.w3.org/2000/svg"
   xmlns="http://www.w3.org/2000/svg"
   xmlns:xlink="http://www.w3.org/1999/xlink"
   version="1.1"
   width="48"
   height="48"
   id="svg249">
  <defs
     id="defs3">
    <linearGradient
       x1="5"
       y1="2"
       x2="17"
       y2="18"
       id="linearGradient9943-42"
       xlink:href="#linearGradient9937-3"
       gradientUnits="userSpaceOnUse"
       gradientTransform="matrix(2.3998765,0,0,2.3998765,0.00318847,0.00318847)" />
    <linearGradient
       id="linearGradient9937-3">
      <stop
         id="stop9939-2"
         style="stop-color:#d8dbd4;stop-opacity:1"
         offset="0" />
      <stop
         id="stop9941-21"
         style="stop-color:#ffffff;stop-opacity:1"
         offset="1" />
    </linearGradient>
  </defs>
  <metadata
     id="metadata4">
    <rdf:RDF>
      <cc:Work
         rdf:about="">
        <dc:format>image/svg+xml</dc:format>
        <dc:type
           rdf:resource="http://purl.org/dc/dcmitype/StillImage" />
        <dc:title></dc:title>
        <dc:creator>
          <cc:Agent>
            <dc:title>Jakub Steiner</dc:title>
          </cc:Agent>
        </dc:creator>
        <dc:source>http://jimmac.musichall.cz</dc:source>
        <cc:license
           rdf:resource="http://creativecommons.org/licenses/publicdomain/" />
      </cc:Work>
      <cc:License
         rdf:about="http://creativecommons.org/licenses/publicdomain/">
        <cc:permits
           rdf:resource="http://creativecommons.org/ns#Reproduction" />
        <cc:permits
           rdf:resource="http://creativecommons.org/ns#Distribution" />
        <cc:permits
           rdf:resource="http://creativecommons.org/ns#DerivativeWorks" />
      </cc:License>
    </rdf:RDF>
  </metadata>
  <rect
     width="40.797901"
     height="43.197777"
     x="2.403065"
     y="2.403065"
     id="rect9933"
     style="fill:#ffffff;fill-opacity:1;fill-rule:evenodd;stroke:none" />
  <rect
     width="35.998146"
     height="38.398022"
     x="4.8029408"
     y="4.8029408"
     id="rect9935"
     style="fill:url(#linearGradient9943-42);fill-opacity:1;fill-rule:evenodd;stroke:none" />
  <path
     d="m 0.00318847,0.00318847 0,47.99752853 45.59765253,0 0,-47.99752853 z M 2.403065,2.403065 l 11.999382,0 0,11.999382 -11.999382,0 z m 14.399258,0 11.999383,0 0,11.999382 -11.999383,0 z m 14.39926,0 11.999381,0 0,11.999382 -11.999381,0 z m -28.798518,14.399258 40.797899,0 0,11.999383 -40.797899,0 z m 0,14.39926 11.999382,0 0,14.399259 -11.999382,0 z m 14.399258,0 11.999383,0 0,14.399259 -11.999383,0 z m 14.39926,0 11.999381,0 0,14.399259 -11.999381,0 z"
     id="rect9945"
     style="fill:#888a85;fill-opacity:1;fill-rule:evenodd;stroke:none" />
  <path
     d="m 0.00318847,14.402446 0,16.799137 45.59765253,0 0,-16.799136 -45.59765253,0 z m 2.39987653,2.399877 40.797899,0 0,11.999383 -40.797899,0 0,-11.999383 z"
     id="rect4935"
     style="fill:#204a87;fill-opacity:1;fill-rule:evenodd;stroke:none" />
  <path
     d="m 8.4095358,22.781675 5.9929102,-5.979352 0,4.799753 16.799137,0 0,-4.799753 6.042627,5.979352 -6.042627,6.020031 0,-4.799753 -16.799136,0 0,4.799753 z"
     id="path4944"
     style="fill:#205190;fill-opacity:1;stroke:none" />
</svg>
