<?xml version="1.0" encoding="UTF-8" standalone="no"?>
<!-- Created with Inkscape (http://www.inkscape.org/) -->

<svg
   xmlns:dc="http://purl.org/dc/elements/1.1/"
   xmlns:cc="http://creativecommons.org/ns#"
   xmlns:rdf="http://www.w3.org/1999/02/22-rdf-syntax-ns#"
   xmlns:svg="http://www.w3.org/2000/svg"
   xmlns="http://www.w3.org/2000/svg"
   xmlns:xlink="http://www.w3.org/1999/xlink"
   version="1.0"
   width="128"
   height="128"
   id="svg2">
  <defs
     id="defs4">
    <linearGradient
       id="linearGradient4126">
      <stop
         id="stop4128"
         style="stop-color:#555555;stop-opacity:1"
         offset="0" />
      <stop
         id="stop4130"
         style="stop-color:#000000;stop-opacity:1"
         offset="1" />
    </linearGradient>
    <linearGradient
       x1="58.929012"
       y1="58.6684"
       x2="58.929012"
       y2="5.3364"
       id="linearGradient3905"
       xlink:href="#linearGradient4126"
       gradientUnits="userSpaceOnUse" />
  </defs>
  <metadata
     id="metadata7">
    <rdf:RDF>
      <cc:Work
         rdf:about="">
        <dc:format>image/svg+xml</dc:format>
        <dc:type
           rdf:resource="http://purl.org/dc/dcmitype/StillImage" />
        <dc:title></dc:title>
      </cc:Work>
    </rdf:RDF>
  </metadata>
  <g
     transform="matrix(1.3236014,0,0,1.295062,-16.444472,-9.5733432)"
     id="g3913"
     style="font-size:43.94123459px;font-style:normal;font-variant:normal;font-weight:normal;font-stretch:normal;line-height:125%;letter-spacing:0px;word-spacing:0px;opacity:0.19232046;fill:url(#linearGradient3905);fill-opacity:1;stroke:none;font-family:Nokia Pure Headline;-inkscape-font-specification:Nokia Pure Headline" />
  <path
     d="M 54.906616,9.9846308 0.3474268,64.543824 54.906616,119.10294 l 0,-30.310618 72.745584,0 -18.1864,-24.250196 18.1864,-24.246833 -72.745584,0 z"
     id="path7776"
     style="opacity:0.62025314;color:#000000;fill:#729fcf;fill-opacity:1;fill-rule:evenodd;stroke:none;stroke-width:0.80000001;marker:none;visibility:visible;display:inline;overflow:visible;font-family:Bitstream Vera Sans" />
  <path
     d="M 48.844848,24.759382 9.0621054,64.542126 48.844848,104.32482 l 0,-15.534195 0,-6.062102 6.062132,0 60.62132,0 -10.98762,-14.587006 -2.65218,-3.599391 2.65218,-3.599391 10.98762,-14.587007 -60.62132,0 -6.062132,0 0,-6.062132 0,-15.534214 z m -6.062132,14.397564 0,1.13665 0,12.124264 12.124264,0 48.49706,0 -3.599393,4.925483 -5.493807,7.198783 5.493807,7.198782 3.599393,4.925483 -48.49706,0 -12.124264,0 0,12.124234 0,1.136649 -25.385179,-25.385148 25.385179,-25.38518 z"
     id="path7780"
     style="opacity:0.4;color:#000000;fill:#ffffff;fill-opacity:1;fill-rule:evenodd;stroke:none;stroke-width:0.80000001;marker:none;visibility:visible;display:inline;overflow:visible;font-family:Bitstream Vera Sans" />
  <path
     d="M 54.906986,9.9829092 0.34779659,64.542102 54.906986,119.10124 l 0,-30.310615 72.745584,0 -18.1864,-24.248523 18.1864,-24.24853 -72.745584,0 0,-30.3106628 z m -6.062132,14.7764488 0,15.534214 0,6.062132 6.062132,0 60.621324,0 -10.98762,14.587007 -2.65218,3.599391 2.65218,3.599391 10.98762,14.587006 -60.621324,0 -6.062132,0 0,6.062126 0,15.534195 L 9.0621115,64.542102 48.844854,24.759358 z"
     id="path7778"
     style="opacity:0.62025314;fill:#204a87;fill-opacity:1;fill-rule:evenodd;stroke:none;stroke-width:0.80000001;marker:none;visibility:visible;display:inline;overflow:visible;font-family:Bitstream Vera Sans" />
</svg>
