<?xml version="1.0" encoding="UTF-8" standalone="no"?>
<!-- Created with Inkscape (http://www.inkscape.org/) -->

<svg
   xmlns:dc="http://purl.org/dc/elements/1.1/"
   xmlns:cc="http://creativecommons.org/ns#"
   xmlns:rdf="http://www.w3.org/1999/02/22-rdf-syntax-ns#"
   xmlns:svg="http://www.w3.org/2000/svg"
   xmlns="http://www.w3.org/2000/svg"
   xmlns:xlink="http://www.w3.org/1999/xlink"
   version="1.1"
   width="48"
   height="48"
   id="svg249">
  <defs
     id="defs3">
    <linearGradient
       x1="9"
       y1="7"
       x2="9"
       y2="12"
       id="linearGradient9976-4"
       xlink:href="#linearGradient9970-5"
       gradientUnits="userSpaceOnUse"
       gradientTransform="matrix(2.4004836,0,0,2.4004836,-0.00193424,-0.00193424)" />
    <linearGradient
       id="linearGradient9970-5">
      <stop
         id="stop9972-5"
         style="stop-color:#9cc0dc;stop-opacity:1"
         offset="0" />
      <stop
         id="stop9974-1"
         style="stop-color:#8db7d7;stop-opacity:1"
         offset="1" />
    </linearGradient>
    <linearGradient
       x1="5"
       y1="2"
       x2="17"
       y2="18"
       id="linearGradient9943-7"
       xlink:href="#linearGradient9937-1"
       gradientUnits="userSpaceOnUse"
       gradientTransform="matrix(2.4004836,0,0,2.4004836,-0.00193424,-0.00193424)" />
    <linearGradient
       id="linearGradient9937-1">
      <stop
         id="stop9939-1"
         style="stop-color:#d8dbd4;stop-opacity:1"
         offset="0" />
      <stop
         id="stop9941-5"
         style="stop-color:#ffffff;stop-opacity:1"
         offset="1" />
    </linearGradient>
  </defs>
  <metadata
     id="metadata4">
    <rdf:RDF>
      <cc:Work
         rdf:about="">
        <dc:format>image/svg+xml</dc:format>
        <dc:type
           rdf:resource="http://purl.org/dc/dcmitype/StillImage" />
        <dc:title></dc:title>
        <dc:creator>
          <cc:Agent>
            <dc:title>Jakub Steiner</dc:title>
          </cc:Agent>
        </dc:creator>
        <dc:source>http://jimmac.musichall.cz</dc:source>
        <cc:license
           rdf:resource="http://creativecommons.org/licenses/publicdomain/" />
      </cc:Work>
      <cc:License
         rdf:about="http://creativecommons.org/licenses/publicdomain/">
        <cc:permits
           rdf:resource="http://creativecommons.org/ns#Reproduction" />
        <cc:permits
           rdf:resource="http://creativecommons.org/ns#Distribution" />
        <cc:permits
           rdf:resource="http://creativecommons.org/ns#DerivativeWorks" />
      </cc:License>
    </rdf:RDF>
  </metadata>
  <rect
     width="40.80822"
     height="43.208706"
     x="2.3985496"
     y="2.3985493"
     id="rect9933"
     style="fill:#ffffff;fill-opacity:1;fill-rule:evenodd;stroke:none" />
  <rect
     width="36.007252"
     height="38.407738"
     x="4.7990327"
     y="4.7990332"
     id="rect9935"
     style="fill:url(#linearGradient9943-7);fill-opacity:1;fill-rule:evenodd;stroke:none" />
  <path
     d="m -0.00193424,-0.00193424 0,48.00967024 45.60918624,0 0,-48.00967024 -45.60918624,0 z m 2.40048374,2.40048364 12.0024175,0 0,12.0024176 -12.0024175,0 0,-12.0024176 z m 14.4029015,0 12.002416,0 0,12.0024176 -12.002416,0 0,-12.0024176 z m 14.4029,0 12.002418,0 0,12.0024176 -12.002418,0 0,-12.0024176 z M 2.3985495,16.801451 l 12.0024175,0 0,12.002416 -12.0024175,0 0,-12.002416 z m 14.4029015,0 12.002416,0 0,12.002416 -12.002416,0 0,-12.002416 z m 14.4029,0 12.002418,0 0,12.002416 -12.002418,0 0,-12.002416 z m -28.8058015,14.4029 12.0024175,0 0,14.402901 -12.0024175,0 0,-14.402901 z m 14.4029015,0 12.002416,0 0,14.402901 -12.002416,0 0,-14.402901 z m 14.4029,0 12.002418,0 0,14.402901 -12.002418,0 0,-14.402901 z"
     id="rect9945"
     style="fill:#888a85;fill-opacity:1;fill-rule:evenodd;stroke:none" />
  <rect
     width="16.803385"
     height="16.803385"
     x="14.400967"
     y="14.400967"
     id="rect9966"
     style="fill:#204a87;fill-opacity:1;fill-rule:evenodd;stroke:none" />
  <rect
     width="12.002418"
     height="12.002418"
     x="16.801453"
     y="16.801453"
     id="rect9968"
     style="fill:url(#linearGradient9976-4);fill-opacity:1;fill-rule:evenodd;stroke:none" />
  <path
     d="m 37.248492,20.332105 c 0,0 -5.116222,-4.918113 -8.394911,-8.331622 -0.271404,-0.282563 -0.391394,-1.1577 0,-1.175378 1.420359,-0.06415 6.026073,0 6.026073,0 0,0 -0.0038,-0.816756 0,-1.225105 0.005,-0.5335591 -0.647645,-1.1881546 -1.225106,-1.1798986 -2.400483,0.03432 -3.630109,0.045205 -3.630109,0.045205 l 4e-6,-4.8416534 c 0,0 2.545101,-0.0181 4.945627,-0.045209 1.911576,-0.02158 4.760992,2.6274267 4.751241,4.8416534 -0.0065,1.4904948 1.3e-5,2.4050036 1.3e-5,2.4050036 0,0 4.174947,0.0024 5.935647,10e-7 0.391787,-5.25e-4 0.271492,0.892907 -5e-6,1.175379 -3.3266,3.461067 -8.408474,8.331622 -8.408474,8.331622 z"
     id="path9982"
     style="fill:#ffffff;fill-opacity:1;stroke:#2a5b9a;stroke-width:2.40048361;stroke-opacity:1" />
  <path
     d="m 10.899796,27.696167 c 0,0 5.116223,4.918113 8.394912,8.331622 0.271404,0.282563 0.391394,1.1577 0,1.175378 -1.420359,0.06416 -6.026073,0 -6.026073,0 0,0 0.0038,0.816757 0,1.225106 -0.005,0.53356 0.647645,1.188155 1.225106,1.179897 2.400483,-0.03433 3.630109,-0.0452 3.630109,-0.0452 l -5e-6,4.841655 c 0,0 -2.545101,0.01801 -4.945627,0.0452 -1.911575,0.0216 -4.760994,-2.627427 -4.7512433,-4.841655 0.00648,-1.490494 -1.19e-5,-2.405003 -1.19e-5,-2.405003 0,0 -4.1749479,-0.0024 -5.9356484,0 -0.3917877,5.26e-4 -0.2714923,-0.892908 4.8e-6,-1.175381 3.3266012,-3.461065 8.4084768,-8.331619 8.4084768,-8.331619 z"
     id="path9982-1"
     style="fill:#ffffff;fill-opacity:1;stroke:#2a5b9a;stroke-width:2.40048361;stroke-opacity:1" />
</svg>
